<svg width="38" height="38" viewBox="0 0 34 34" fill="none" xmlns="http://www.w3.org/2000/svg">
<path d="M20.3332 33.6666H3.66658C2.77337 33.6977 1.90737 33.3565 1.27539 32.7245C0.643418 32.0925 0.302207 31.2265 0.333246 30.3333V13.6666C0.302207 12.7734 0.643418 11.9074 1.27539 11.2755C1.90737 10.6435 2.77337 10.3023 3.66658 10.3333H10.3332V3.66664C10.3022 2.77343 10.6434 1.90743 11.2754 1.27545C11.9074 0.643479 12.7734 0.302268 13.6666 0.333307H30.3332C31.2265 0.302268 32.0925 0.643479 32.7244 1.27545C33.3564 1.90743 33.6976 2.77343 33.6666 3.66664V20.3333C33.6971 21.2264 33.3557 22.0921 32.7239 22.7239C32.092 23.3558 31.2263 23.6972 30.3332 23.6666H23.6666V30.3333C23.6971 31.2264 23.3557 32.0921 22.7239 32.7239C22.092 33.3558 21.2263 33.6972 20.3332 33.6666ZM3.66658 13.6666V30.3333H20.3332V23.6666H13.6666C12.7735 23.6972 11.9078 23.3558 11.2759 22.7239C10.6441 22.0921 10.3027 21.2264 10.3332 20.3333V13.6666H3.66658ZM13.6666 3.66664V20.3333H30.3332V3.66664H13.6666Z" fill="white"/>
</svg>
