<svg width="38" height="38" viewBox="0 0 38 38" fill="none" xmlns="http://www.w3.org/2000/svg">
<path d="M19.0042 37.8354C13.8792 37.8354 13.275 37.8084 11.275 37.7209C9.71534 37.6696 8.17589 37.3525 6.7229 36.7834C4.20897 35.805 2.22111 33.8164 1.24373 31.3021C0.696455 29.8439 0.401271 28.3031 0.370817 26.7459C0.25415 24.75 0.25415 24.0959 0.25415 19.0104C0.25415 13.8709 0.281234 13.2709 0.370817 11.2813C0.401937 9.7261 0.697111 8.18754 1.24373 6.73127C2.22005 4.21362 4.21113 2.2233 6.72915 1.24794C8.18466 0.698359 9.72362 0.402404 11.2792 0.372937C13.2687 0.260437 13.9229 0.260437 19.0042 0.260437C24.1708 0.260437 24.7646 0.28752 26.7333 0.372937C28.2929 0.402659 29.8359 0.698582 31.2958 1.24794C33.8131 2.2244 35.8038 4.21434 36.7812 6.73127C37.3377 8.20876 37.6345 9.77138 37.6583 11.35C37.775 13.3459 37.775 13.9979 37.775 19.0813C37.775 24.1646 37.7458 24.8313 37.6583 26.8042C37.6273 28.3629 37.3314 29.9051 36.7833 31.3646C35.8034 33.8807 33.8126 35.87 31.2958 36.8479C29.838 37.3942 28.2981 37.6893 26.7417 37.7209C24.7521 37.8354 24.1 37.8354 19.0042 37.8354ZM18.9333 3.55835C13.8375 3.55835 13.3083 3.58335 11.3187 3.67294C10.1312 3.68867 8.95515 3.90781 7.84165 4.32085C6.19739 4.95004 4.89629 6.24584 4.2604 7.88752C3.84418 9.01314 3.625 10.2021 3.61248 11.4021C3.50207 13.4209 3.50207 13.95 3.50207 19.0104C3.50207 24.0104 3.52082 24.6167 3.61248 26.6229C3.63113 27.8109 3.85018 28.9871 4.2604 30.1021C4.89723 31.7427 6.1981 33.0375 7.84165 33.6667C8.95439 34.0825 10.1309 34.3017 11.3187 34.3146C13.3354 34.4313 13.8667 34.4313 18.9333 34.4313C24.0437 34.4313 24.5729 34.4063 26.5458 34.3146C27.7342 34.3001 28.9111 34.081 30.025 33.6667C31.6593 33.0321 32.9519 31.7402 33.5875 30.1063C34.0029 28.9797 34.222 27.7902 34.2354 26.5896H34.2583C34.3479 24.5979 34.3479 24.0667 34.3479 18.9771C34.3479 13.8875 34.325 13.3521 34.2354 11.3625C34.2167 10.176 33.9977 9.00109 33.5875 7.88752C32.9534 6.25121 31.6606 4.95688 30.025 4.32085C28.9113 3.90573 27.7342 3.68652 26.5458 3.67294C24.5312 3.55835 24.0042 3.55835 18.9333 3.55835ZM19.0042 28.6334C15.1083 28.6359 11.5946 26.2911 10.1018 22.6926C8.60896 19.0941 9.43104 14.9507 12.1846 12.1947C14.9382 9.43875 19.0809 8.61308 22.6807 10.1028C26.2805 11.5925 28.6283 15.1042 28.6292 19C28.6234 24.3147 24.3189 28.623 19.0042 28.6334ZM19.0042 12.7459C15.5524 12.7459 12.7542 15.5441 12.7542 18.9959C12.7542 22.4476 15.5524 25.2459 19.0042 25.2459C22.4559 25.2459 25.2542 22.4476 25.2542 18.9959C25.2461 15.5474 22.4526 12.7539 19.0042 12.7459ZM29.0042 11.2604C27.7655 11.2558 26.7644 10.2492 26.7667 9.01045C26.769 7.77175 27.7738 6.76879 29.0125 6.76879C30.2512 6.76879 31.256 7.77173 31.2583 9.01044C31.2589 9.60807 31.0214 10.1813 30.5985 10.6035C30.1755 11.0257 29.6018 11.2621 29.0042 11.2604Z" fill="white"/>
</svg>
