<svg width="26" height="26" viewBox="0 0 26 26" fill="white" xmlns="http://www.w3.org/2000/svg">
<path d="M20.2335 21.2409L14.0422 15.0486C11.288 17.0067 7.49287 16.5277 5.31151 13.9468C3.13014 11.3658 3.29032 7.5439 5.67998 5.15451C8.06901 2.76408 11.8913 2.60321 14.4727 4.78446C17.0542 6.96571 17.5334 10.7612 15.5751 13.5157L21.7664 19.708L20.2346 21.2398L20.2335 21.2409ZM10.2755 5.41666C8.22115 5.4162 6.44881 6.85824 6.03149 8.86973C5.61417 10.8812 6.66658 12.9093 8.55154 13.7261C10.4365 14.5429 12.636 13.9239 13.8182 12.2439C15.0005 10.5639 14.8407 8.2846 13.4356 6.78601L14.091 7.43601L13.3521 6.69934L13.3391 6.68634C12.5286 5.87078 11.4253 5.41356 10.2755 5.41666Z" fill="#6F6F6F"/>
</svg>
